# xmcd
#
# Track frame offsets: 
#        150
#        16028
#        31254
#        46284
#        63609
#        77271
#        93375
#        107822
#        126972
#        143123
#        157764
#        175703
#
# Disc length: 2566 seconds
#
# Revision: 0
# Processed by: cddbd v1.5.2PL0 Copyright (c) Steve Scherf et al.
# Submitted via: ExactAudioCopy v1.0b3
#
DISCID=890a040c
DTITLE=Micky and the Motorcars - Hearts From Above
DYEAR=2014
DGENRE=Red Dirt
TTITLE0=Hearts From Above
TTITLE1=Long Road to Nowhere
TTITLE2=Hurt Again
TTITLE3=Destined to Fall
TTITLE4=You Led Me The Wrong Way
TTITLE5=Fall Apart
TTITLE6=My Girl Now
TTITLE7=Sister Lost Soul
TTITLE8=Once In A Lifetime Girl
TTITLE9=Southbound Street
TTITLE10=From Where the Sun Now Stands
TTITLE11=Tonight We Ride
EXTD=
EXTT0=
EXTT1=
EXTT2=
EXTT3=
EXTT4=
EXTT5=
EXTT6=
EXTT7=
EXTT8=
EXTT9=
EXTT10=
EXTT11=
PLAYORDER=
